<?xml version="1.0" standalone="no"?>
<!DOCTYPE svg PUBLIC "-//W3C//DTD SVG 20010904//EN"
 "http://www.w3.org/TR/2001/REC-SVG-20010904/DTD/svg10.dtd">
<svg version="1.0" xmlns="http://www.w3.org/2000/svg"
 width="500.000000pt" height="500.000000pt" viewBox="0 0 500.000000 500.000000"
 preserveAspectRatio="xMidYMid meet">
<metadata>
Created by potrace 1.11, written by Peter Selinger 2001-2013
</metadata>
<g transform="translate(0.000000,500.000000) scale(0.100000,-0.100000)"
fill="#000000" stroke="none">
<path d="M3418 4721 c-37 -42 -75 -85 -85 -96 -10 -11 -70 -78 -133 -150 -63
-71 -148 -168 -189 -215 -42 -47 -90 -101 -107 -120 -17 -19 -100 -114 -184
-210 -84 -96 -171 -195 -194 -220 -23 -25 -138 -155 -256 -290 -118 -135 -217
-247 -220 -250 -3 -3 -36 -41 -75 -85 -38 -44 -72 -82 -75 -85 -3 -3 -54 -61
-115 -130 -60 -69 -124 -141 -141 -160 -17 -19 -43 -48 -57 -65 l-26 -30 -1
1088 0 1087 -447 0 -448 0 2 -2277 c1 -1253 2 -2284 2 -2290 1 -10 97 -13 446
-13 l445 0 0 685 0 684 28 29 c51 54 376 393 468 489 l91 96 97 -134 c53 -74
103 -142 111 -152 8 -9 15 -19 15 -22 0 -3 37 -54 192 -269 21 -28 46 -62 55
-76 10 -14 61 -84 113 -156 52 -73 102 -142 110 -154 8 -12 20 -28 25 -34 6
-6 19 -24 29 -41 11 -16 23 -34 28 -40 5 -5 41 -55 80 -110 40 -55 75 -102 78
-105 3 -3 10 -13 15 -22 6 -10 84 -120 175 -245 90 -125 196 -272 234 -325
l70 -98 498 0 c274 0 498 2 498 5 0 2 -55 79 -122 171 -68 91 -130 176 -138
188 -16 25 -37 53 -86 119 -70 94 -150 203 -166 227 -18 27 -342 469 -355 485
-5 6 -26 35 -48 65 -22 30 -43 60 -48 65 -4 6 -32 44 -62 85 -30 41 -63 86
-73 99 -9 13 -94 130 -189 260 -94 130 -175 241 -180 246 -5 6 -95 128 -201
273 l-192 264 152 176 c84 97 182 211 217 252 36 41 67 77 70 80 4 3 44 50 91
105 47 55 87 102 90 105 3 3 30 34 60 70 30 36 58 67 61 70 3 3 104 120 224
260 204 237 238 277 305 351 14 15 41 47 60 71 19 24 53 63 76 88 22 25 96
110 165 190 68 79 135 158 149 173 14 16 24 32 23 35 -2 4 -220 7 -486 8
l-483 1 -66 -76z"/>
</g>
</svg>
